<svg xmlns="http://www.w3.org/2000/svg" width="34" height="29.981" viewBox="0 0 34 29.981">
  <g id="noun-alert-5164950" transform="translate(-10.025 -14.7)">
    <path id="Path_37974" data-name="Path 37974" d="M46.954,66.7a2.254,2.254,0,1,0,2.254,2.254A2.269,2.269,0,0,0,46.954,66.7Z" transform="translate(-19.929 -29.886)" fill="#6edc43"/>
    <path id="Path_37975" data-name="Path 37975" d="M46.242,31.9a2.807,2.807,0,0,0-2.084.936A2.845,2.845,0,0,0,43.478,35l1.148,10.206a.79.79,0,0,0,.808.68h1.659a.858.858,0,0,0,.808-.68L49.049,35a2.845,2.845,0,0,0-.68-2.169A2.97,2.97,0,0,0,46.242,31.9Z" transform="translate(-19.217 -9.885)" fill="#6edc43"/>
    <path id="Path_37976" data-name="Path 37976" d="M28.811,15.721A2.087,2.087,0,0,0,27.025,14.7a2.036,2.036,0,0,0-1.786,1.021L10.312,41.577a2.034,2.034,0,0,0,0,2.084A2.087,2.087,0,0,0,12.1,44.681H41.952a1.987,1.987,0,0,0,1.786-1.021,2.034,2.034,0,0,0,0-2.084ZM42.377,42.9a.467.467,0,0,1-.425.255H12.1a.467.467,0,0,1-.425-.255.526.526,0,0,1,0-.51L26.6,16.529a.482.482,0,0,1,.851,0L42.377,42.385A.526.526,0,0,1,42.377,42.9Z" fill="#6edc43"/>
  </g>
</svg>
