<svg xmlns="http://www.w3.org/2000/svg" width="37.412" height="36.535" viewBox="0 0 37.412 36.535">
  <g id="noun-delay-1250110" transform="translate(-6.6 -6.25)">
    <g id="Group_36574" data-name="Group 36574" transform="translate(6.6 6.25)">
      <g id="Group_36573" data-name="Group 36573">
        <path id="Path_37950" data-name="Path 37950" d="M28.007,10.442A8.614,8.614,0,1,1,39.26,22.564,16.518,16.518,0,1,1,28.007,10.442Zm-.846,1.9A14.453,14.453,0,1,0,37.3,23.265,8.62,8.62,0,0,1,27.161,12.347ZM22.309,29.331a1.378,1.378,0,0,1-1.378-1.378V20.719a1.033,1.033,0,1,1,2.067,0v6.545h5.167a1.033,1.033,0,1,1,0,2.067H22.309Zm12.418-1.886a.979.979,0,1,1,.965-.979A.972.972,0,0,1,34.727,27.446Zm-23.15,0a.979.979,0,1,1,.965-.979A.972.972,0,0,1,11.577,27.446ZM30.64,35.478a.979.979,0,1,1,1.374-.01A.972.972,0,0,1,30.64,35.478ZM14.27,18.863a.979.979,0,1,1,1.374-.01A.972.972,0,0,1,14.27,18.863Zm1.385,16.593a.979.979,0,1,1-.01-1.374A.972.972,0,0,1,15.655,35.455Zm7.5,3.74a.979.979,0,1,1,.965-.979A.972.972,0,0,1,23.152,39.195Zm0-23.5a.979.979,0,1,1,.965-.979A.972.972,0,0,1,23.152,15.7ZM35.4,20.719A1.722,1.722,0,1,0,33.678,19,1.722,1.722,0,0,0,35.4,20.719ZM34.711,8.661a.689.689,0,0,0-.689.689v5.512a.689.689,0,0,0,.689.689h1.378a.689.689,0,0,0,.689-.689h0V9.35a.689.689,0,0,0-.689-.689H34.711Z" transform="translate(-6.6 -6.25)" fill="#6edc43"/>
      </g>
    </g>
  </g>
</svg>
