<svg xmlns="http://www.w3.org/2000/svg" width="37.413" height="37.183" viewBox="0 0 37.413 37.183">
  <g id="noun-punctual-152641" transform="translate(-10.225 -5)">
    <path id="Path_37951" data-name="Path 37951" d="M73.024,23.029A17.682,17.682,0,0,0,62.213,12.218l-.721,2.072a15.471,15.471,0,0,1,9.46,9.46Z" transform="translate(-28.779 -4.052)" fill="#6edc43"/>
    <path id="Path_37952" data-name="Path 37952" d="M35.19,13.194a1.1,1.1,0,0,0,.32.776,1.1,1.1,0,0,0,1.548,0,1.091,1.091,0,0,0,0-1.553,1.133,1.133,0,0,0-1.548,0A1.093,1.093,0,0,0,35.19,13.194Z" transform="translate(-14.014 -3.992)" fill="#6edc43"/>
    <path id="Path_37953" data-name="Path 37953" d="M20.555,23.681a1.095,1.095,0,1,0,.136,1.544A1.094,1.094,0,0,0,20.555,23.681Z" transform="translate(-4.788 -10.343)" fill="#6edc43"/>
    <path id="Path_37954" data-name="Path 37954" d="M18.738,72.384a1.1,1.1,0,1,0-.662-1.969,1.095,1.095,0,0,0,.662,1.969Z" transform="translate(-4.164 -36.597)" fill="#6edc43"/>
    <path id="Path_37955" data-name="Path 37955" d="M26.4,18.361a1.092,1.092,0,0,0,.9.474,1.076,1.076,0,0,0,.618-.193,1.1,1.1,0,1,0-1.522-.281Z" transform="translate(-8.97 -6.536)" fill="#6edc43"/>
    <path id="Path_37956" data-name="Path 37956" d="M35.625,83.809a1.1,1.1,0,1,0-1.426.605,1.023,1.023,0,0,0,.408.079A1.1,1.1,0,0,0,35.625,83.809Z" transform="translate(-13.072 -43.394)" fill="#6edc43"/>
    <path id="Path_37957" data-name="Path 37957" d="M11.319,53.845a1.11,1.11,0,0,0,.123,0,1.119,1.119,0,1,0-.123,0Z" transform="translate(0 -26.19)" fill="#6edc43"/>
    <path id="Path_37958" data-name="Path 37958" d="M25.189,79.291a1.1,1.1,0,0,0,1.54-.206,1.1,1.1,0,1,0-1.54.206Z" transform="translate(-8.158 -40.6)" fill="#6edc43"/>
    <path id="Path_37959" data-name="Path 37959" d="M80.045,69.048a1.094,1.094,0,1,0,.277,1.526A1.093,1.093,0,0,0,80.045,69.048Z" transform="translate(-38.227 -35.844)" fill="#6edc43"/>
    <path id="Path_37960" data-name="Path 37960" d="M15.469,33.491a1.1,1.1,0,1,0-1.456.54,1.059,1.059,0,0,0,.456.1A1.1,1.1,0,0,0,15.469,33.491Z" transform="translate(-1.768 -15.122)" fill="#6edc43"/>
    <path id="Path_37961" data-name="Path 37961" d="M11.736,41.592a1.1,1.1,0,0,0-.347,2.167,1.228,1.228,0,0,0,.175.013,1.1,1.1,0,0,0,.171-2.18Z" transform="translate(-0.136 -20.534)" fill="#6edc43"/>
    <path id="Path_37962" data-name="Path 37962" d="M13.767,63.621a1.106,1.106,0,0,0,.408-.079,1.1,1.1,0,1,0-.408.079Z" transform="translate(-1.373 -31.676)" fill="#6edc43"/>
    <path id="Path_37963" data-name="Path 37963" d="M64.094,83.85a1.028,1.028,0,0,0,.452-.1,1.1,1.1,0,0,0-.9-2h0a1.1,1.1,0,0,0,.457,2.1Z" transform="translate(-29.623 -43.031)" fill="#6edc43"/>
    <path id="Path_37964" data-name="Path 37964" d="M55.528,85.474a1.1,1.1,0,1,0-1.083,1.268,1.179,1.179,0,0,0,.171-.013h0A1.1,1.1,0,0,0,55.528,85.474Z" transform="translate(-24.208 -44.655)" fill="#6edc43"/>
    <path id="Path_37965" data-name="Path 37965" d="M73.324,78.227a1.1,1.1,0,1,0-.706.254A1.095,1.095,0,0,0,73.324,78.227Z" transform="translate(-34.41 -40.018)" fill="#6edc43"/>
    <path id="Path_37966" data-name="Path 37966" d="M44.492,84.771a1.1,1.1,0,0,0-.241,2.18,1.156,1.156,0,0,0,.123.009,1.1,1.1,0,0,0,.118-2.189Z" transform="translate(-18.553 -44.777)" fill="#6edc43"/>
    <path id="Path_37967" data-name="Path 37967" d="M84.017,62.026a1.093,1.093,0,0,0,1.1-1.1,1.129,1.129,0,0,0-.32-.776,1.143,1.143,0,0,0-1.553,0,1.094,1.094,0,0,0,.776,1.869Z" transform="translate(-40.809 -30.791)" fill="#6edc43"/>
    <path id="Path_37968" data-name="Path 37968" d="M82.451,45.747l-1.418-1.418L79.482,45.88l2.969,2.968,4.065-4.065-1.551-1.551Z" transform="translate(-38.878 -21.462)" fill="#6edc43"/>
    <path id="Path_37969" data-name="Path 37969" d="M42.5,8.29A3.29,3.29,0,1,0,45.79,5,3.293,3.293,0,0,0,42.5,8.29Zm4.386,0a1.1,1.1,0,1,1-1.1-1.1A1.1,1.1,0,0,1,46.886,8.29Z" transform="translate(-18.118 0)" fill="#6edc43"/>
    <path id="Path_37970" data-name="Path 37970" d="M47.239,37.369a9.869,9.869,0,1,0-9.869,9.869A9.881,9.881,0,0,0,47.239,37.369Zm-9.869-7.676a7.676,7.676,0,1,1-7.676,7.676A7.685,7.685,0,0,1,37.369,29.693Z" transform="translate(-9.698 -12.631)" fill="#6edc43"/>
    <path id="Path_37971" data-name="Path 37971" d="M51.886,41.886H49.693V37.5H47.5v6.58h4.386Z" transform="translate(-20.925 -18.244)" fill="#6edc43"/>
  </g>
</svg>
