<svg xmlns="http://www.w3.org/2000/svg" xmlns:xlink="http://www.w3.org/1999/xlink" width="29" height="29" viewBox="0 0 29 29">

  <g id="Mask_Group_451" data-name="Mask Group 451" transform="translate(-1321 -957)" clip-path="url(#clip-path)">
    <g id="file-Regular" transform="translate(1322.418 959)">
      <rect id="Path" width="26" height="26" fill="rgba(255,255,255,0)"/>
      <path id="file-Regular_1_" d="M511.486,1233.588l-4.782-4.782a1.882,1.882,0,0,0-1.34-.556H500.4a5.152,5.152,0,0,0-5.146,5.146v10.833a5.152,5.152,0,0,0,5.146,5.146h6.5a5.152,5.152,0,0,0,5.146-5.146v-9.3A1.881,1.881,0,0,0,511.486,1233.588Zm-4.861-2.564,2.642,2.642h-.746a1.9,1.9,0,0,1-1.9-1.9Zm.271,16.727h-6.5a3.525,3.525,0,0,1-3.521-3.521V1233.4a3.525,3.525,0,0,1,3.521-3.521H505v1.9a3.525,3.525,0,0,0,3.521,3.521h1.9v8.938A3.525,3.525,0,0,1,506.9,1247.75Z" transform="translate(-490.646 -1225.813)" fill="#b7b7b7"/>
    </g>
  </g>
  <defs>
    <clipPath id="clip-path">
      <rect id="Rectangle_8877" data-name="Rectangle 8877" width="29" height="29" transform="translate(1321 957)" fill="#fff" opacity="0.2"/>
    </clipPath>
  </defs>
</svg>
