<svg xmlns="http://www.w3.org/2000/svg" xmlns:xlink="http://www.w3.org/1999/xlink" width="29" height="29" viewBox="0 0 29 29">

  <g id="Mask_Group_456" data-name="Mask Group 456" transform="translate(-1250 -1167)" clip-path="url(#clip-path)">
    <g id="file-Filled" transform="translate(1251 1169)">
      <rect id="Path" width="26" height="26" fill="rgba(255,255,255,0)"/>
      <path id="file-Filled_1_" d="M506.6,2702.75v-2.665l4.561,4.561H508.5A1.9,1.9,0,0,1,506.6,2702.75Zm1.9,3.521a3.528,3.528,0,0,1-3.521-3.521v-3.25h-4.6a4.882,4.882,0,0,0-4.875,4.875v10.833a4.882,4.882,0,0,0,4.875,4.875h6.5a4.882,4.882,0,0,0,4.875-4.875v-8.937Z" transform="translate(-490.625 -2696.792)" fill="#13293d"/>
    </g>
  </g>
  <defs>
    <clipPath id="clip-path">
      <rect id="Rectangle_8882" data-name="Rectangle 8882" width="29" height="29" transform="translate(1250 1167)" fill="#fff" opacity="0.2"/>
    </clipPath>
  </defs>
</svg>
