<svg xmlns="http://www.w3.org/2000/svg" width="35.096" height="35.096" viewBox="0 0 35.096 35.096">
  <g id="noun-rewards-3848242" transform="translate(-2 -2)">
    <g id="Group_36575" data-name="Group 36575" transform="translate(2 2)">
      <path id="Path_37977" data-name="Path 37977" d="M18.146,20.078l-1.4-1.365,1.937-.281.867-1.758.867,1.756,1.937.282-1.4,1.367.334,1.93L19.548,21.1l-1.733.911ZM37.1,12.863V15.27a4.166,4.166,0,0,1-3.159,4.044l-3.861.953A9.152,9.152,0,0,1,22.055,27v2.577a2.507,2.507,0,0,0,2.507,2.507,4.178,4.178,0,0,1,4.178,4.178.836.836,0,0,1-.836.836H11.192a.836.836,0,0,1-.836-.836,4.178,4.178,0,0,1,4.178-4.178,2.507,2.507,0,0,0,2.507-2.507V27.027a9.215,9.215,0,0,1-8.022-6.743l-3.844-.963A4.178,4.178,0,0,1,2,15.266v-2.4a.836.836,0,0,1,.836-.836H8.685V9.521a.836.836,0,0,1,.836-.836H29.576a.836.836,0,0,1,.836.836v2.507h5.849A.836.836,0,0,1,37.1,12.863ZM8.715,18.487c-.013-.2-.03-.4-.03-.61V13.7H3.671v1.568A2.507,2.507,0,0,0,5.57,17.7ZM19.139,33.754a.836.836,0,1,1,0-1.671h2.1a4.13,4.13,0,0,1-.857-2.507V27.069H18.712v2.507a4.178,4.178,0,0,1-4.178,4.178,2.507,2.507,0,0,0-2.363,1.671H26.925a2.507,2.507,0,0,0-2.363-1.671Zm9.6-23.4H10.356v7.521A7.532,7.532,0,0,0,17.877,25.4h3.342a7.532,7.532,0,0,0,7.521-7.521V13.7H12.863a.836.836,0,0,1,0-1.671H28.74ZM35.425,13.7H30.411v4.178a3.734,3.734,0,0,1-.033.618l3.142-.8a2.487,2.487,0,0,0,1.905-2.423Zm-4.178,13.37a.836.836,0,0,0,.836-.836V24.562a.836.836,0,1,0-1.671,0v1.671A.836.836,0,0,0,31.247,27.069Zm0,1.671a.836.836,0,0,0-.836.836v1.671a.836.836,0,1,0,1.671,0V29.576A.836.836,0,0,0,31.247,28.74Zm-1.671-1.671H28.74a.836.836,0,1,0,0,1.671h.836a.836.836,0,1,0,0-1.671Zm4.178,0h-.836a.836.836,0,0,0,0,1.671h.836a.836.836,0,1,0,0-1.671ZM6.178,5.342a.836.836,0,0,0,.836-.836V2.836a.836.836,0,1,0-1.671,0V4.507A.836.836,0,0,0,6.178,5.342Zm0,1.671a.836.836,0,0,0-.836.836V9.521a.836.836,0,1,0,1.671,0V7.849A.836.836,0,0,0,6.178,7.014Zm-2.507,0h.836a.836.836,0,1,0,0-1.671H3.671a.836.836,0,0,0,0,1.671Zm4.178,0h.836a.836.836,0,1,0,0-1.671H7.849a.836.836,0,1,0,0,1.671Z" transform="translate(-2 -2)" fill="#6edc43"/>
    </g>
  </g>
</svg>
