<svg xmlns="http://www.w3.org/2000/svg" xmlns:xlink="http://www.w3.org/1999/xlink" width="29" height="29" viewBox="0 0 29 29">

  <g id="Mask_Group_458" data-name="Mask Group 458" transform="translate(-1129 -1167)" clip-path="url(#clip-path)">
    <g id="Category" transform="translate(1133 1171)">
      <path id="Stroke_1" data-name="Stroke 1" d="M2.349,0H5.483A2.359,2.359,0,0,1,7.832,2.37V5.53A2.36,2.36,0,0,1,5.483,7.9H2.349A2.36,2.36,0,0,1,0,5.53V2.37A2.36,2.36,0,0,1,2.349,0Z" transform="translate(13.561 2.224)" fill="#13293d"/>
      <path id="Stroke_3" data-name="Stroke 3" d="M3.011,0H7.026a3.024,3.024,0,0,1,3.011,3.037v4.05a3.025,3.025,0,0,1-3.011,3.037H3.011A3.025,3.025,0,0,1,0,7.087V3.037A3.024,3.024,0,0,1,3.011,0Z" fill="#13293d"/>
      <path id="Stroke_5" data-name="Stroke 5" d="M2.349,0H5.482A2.36,2.36,0,0,1,7.832,2.371V5.53A2.36,2.36,0,0,1,5.482,7.9H2.349A2.36,2.36,0,0,1,0,5.53V2.371A2.36,2.36,0,0,1,2.349,0Z" transform="translate(2.205 13.512)" fill="#13293d"/>
      <path id="Stroke_7" data-name="Stroke 7" d="M2.349,0H5.483A2.36,2.36,0,0,1,7.832,2.371V5.53A2.359,2.359,0,0,1,5.483,7.9H2.349A2.36,2.36,0,0,1,0,5.53V2.371A2.36,2.36,0,0,1,2.349,0Z" transform="translate(13.561 13.512)" fill="#13293d"/>
    </g>
  </g>
  <defs>
    <clipPath id="clip-path">
      <rect id="Rectangle_8880" data-name="Rectangle 8880" width="29" height="29" transform="translate(1129 1167)" fill="#fff" opacity="0.2"/>
    </clipPath>
  </defs>
</svg>
