<svg xmlns="http://www.w3.org/2000/svg" xmlns:xlink="http://www.w3.org/1999/xlink" width="29" height="29" viewBox="0 0 29 29">

  <g id="Mask_Group_450" data-name="Mask Group 450" transform="translate(-1407 -957)" clip-path="url(#clip-path)">
    <g id="settings-Regular" transform="translate(1410.043 959.625)">
      <g id="settings-Regular-2" data-name="settings-Regular">
        <path id="settings-Regular-3" data-name="settings-Regular" d="M13.625,18A4.375,4.375,0,1,1,18,13.625,4.38,4.38,0,0,1,13.625,18Zm0-7a2.625,2.625,0,1,0,2.625,2.625A2.627,2.627,0,0,0,13.625,11Zm.583,14H13.042a2.627,2.627,0,0,1-2.625-2.625.423.423,0,0,0-.257-.4l-.009,0a.386.386,0,0,0-.42.084,2.673,2.673,0,0,1-3.737.024l-.822-.824a2.626,2.626,0,0,1,0-3.718.427.427,0,0,0,.09-.459.393.393,0,0,0-.361-.25A2.634,2.634,0,0,1,2.25,14.208V13.042a2.627,2.627,0,0,1,2.625-2.625.421.421,0,0,0,.4-.257l0-.009a.388.388,0,0,0-.084-.42,2.625,2.625,0,0,1-.024-3.737l.827-.827a2.687,2.687,0,0,1,3.712,0,.427.427,0,0,0,.463.1.389.389,0,0,0,.247-.359A2.635,2.635,0,0,1,13.042,2.25h1.167a2.627,2.627,0,0,1,2.625,2.625.4.4,0,0,0,.245.389h0a.422.422,0,0,0,.447-.074A2.615,2.615,0,0,1,19.4,4.4h0a2.608,2.608,0,0,1,1.856.769l.824.822a2.625,2.625,0,0,1,0,3.712.4.4,0,0,0-.106.449l.007.016a.388.388,0,0,0,.358.245A2.635,2.635,0,0,1,25,13.042v1.167a2.627,2.627,0,0,1-2.625,2.625.4.4,0,0,0-.389.245v0a.426.426,0,0,0,.073.447,2.625,2.625,0,0,1,.02,3.732l-.823.824a2.687,2.687,0,0,1-3.712,0,.4.4,0,0,0-.449-.106.412.412,0,0,0-.261.365A2.635,2.635,0,0,1,14.208,25Zm-3.277-4.587a2.178,2.178,0,0,1,1.235,1.93.883.883,0,0,0,.875.908h1.167a.875.875,0,0,0,.875-.875,2.183,2.183,0,0,1,1.347-2.017,2.128,2.128,0,0,1,2.325.463.88.88,0,0,0,1.262.024l.824-.823a.877.877,0,0,0,0-1.24,2.186,2.186,0,0,1-.482-2.345l.006-.016.008-.02a2.124,2.124,0,0,1,1.973-1.318.882.882,0,0,0,.905-.875V13.042a.875.875,0,0,0-.875-.875,2.144,2.144,0,0,1-2.006-1.318l0,0a2.141,2.141,0,0,1,.454-2.35A.894.894,0,0,0,21.1,7.85a.866.866,0,0,0-.257-.618l-.823-.824a.875.875,0,0,0-.62-.256h0a.863.863,0,0,0-.62.258,2.191,2.191,0,0,1-2.345.482l-.016-.006-.02-.008a2.124,2.124,0,0,1-1.318-1.973A.882.882,0,0,0,14.208,4H13.042a.875.875,0,0,0-.875.875,2.144,2.144,0,0,1-1.332,2.011,2.171,2.171,0,0,1-2.34-.457A.883.883,0,0,0,7.232,6.4L6.4,7.232a.875.875,0,0,0,0,1.238,2.144,2.144,0,0,1,.488,2.351,1.088,1.088,0,0,1-.055.111,2.178,2.178,0,0,1-1.93,1.235A.883.883,0,0,0,4,13.042v1.167a.875.875,0,0,0,.875.875,2.138,2.138,0,0,1,2,1.323l.007.015.006.016a2.182,2.182,0,0,1-.467,2.331.875.875,0,0,0-.273.633.866.866,0,0,0,.256.621l.824.823a.9.9,0,0,0,1.238,0,2.145,2.145,0,0,1,2.351-.488A1.088,1.088,0,0,1,10.931,20.413Z" transform="translate(-2.25 -2.25)" fill="#b7b7b7"/>
      </g>
    </g>
  </g>
  <defs>
    <clipPath id="clip-path">
      <rect id="Rectangle_8878" data-name="Rectangle 8878" width="29" height="29" transform="translate(1407 957)" fill="#fff" opacity="0.2"/>
    </clipPath>
  </defs>
</svg>
