<svg xmlns="http://www.w3.org/2000/svg" xmlns:xlink="http://www.w3.org/1999/xlink" width="29" height="29" viewBox="0 0 29 29">

  <g id="Mask_Group_455" data-name="Mask Group 455" transform="translate(-1314 -1167)" clip-path="url(#clip-path)">
    <g id="settings-Filled" transform="translate(1315 1168)">
      <rect id="Path" width="27.387" height="27.387" fill="rgba(255,255,255,0)"/>
      <g id="settings-Filled-2" data-name="settings-Filled" transform="translate(2.282 2.282)">
        <path id="settings-Filled-3" data-name="settings-Filled" d="M22.917,10.878h-.034a1.378,1.378,0,0,1-1.267-.856.011.011,0,0,0-.011-.011,1.39,1.39,0,0,1,.3-1.495l.034-.034a1.908,1.908,0,0,0,0-2.693l-.9-.89a1.908,1.908,0,0,0-2.693,0l-.011.023a1.407,1.407,0,0,1-1.518.285,1.36,1.36,0,0,1-.867-1.267V3.906A1.9,1.9,0,0,0,14.05,2H12.772a1.9,1.9,0,0,0-1.894,1.906V3.94a1.366,1.366,0,0,1-.856,1.267,1.311,1.311,0,0,1-.548.114,1.374,1.374,0,0,1-.97-.4L8.482,4.9a1.908,1.908,0,0,0-2.693,0l-.9.89a1.908,1.908,0,0,0,0,2.693l.034.034a1.389,1.389,0,0,1-.981,2.362H3.906A1.909,1.909,0,0,0,2,12.784V14.05a1.909,1.909,0,0,0,1.906,1.906H3.94a1.349,1.349,0,0,1,1.267.856,1.425,1.425,0,0,1-.285,1.518l-.023.011a1.922,1.922,0,0,0,0,2.7l.89.89a1.908,1.908,0,0,0,2.693,0l.023-.023a1.353,1.353,0,0,1,1.495-.3,1.385,1.385,0,0,1,.879,1.278v.034a1.89,1.89,0,0,0,1.894,1.894H14.05a1.89,1.89,0,0,0,1.894-1.894v-.034a1.385,1.385,0,0,1,.879-1.278,1.353,1.353,0,0,1,1.495.3l.023.023a1.908,1.908,0,0,0,2.693,0l.89-.89a1.922,1.922,0,0,0,0-2.7l-.023-.011a1.425,1.425,0,0,1-.285-1.518,1.349,1.349,0,0,1,1.267-.856h.034a1.909,1.909,0,0,0,1.906-1.906V12.784A1.909,1.909,0,0,0,22.917,10.878Zm-9.505,6.527a3.994,3.994,0,1,1,3.994-3.994A4,4,0,0,1,13.411,17.405Z" transform="translate(-2 -2)" fill="#13293d"/>
      </g>
    </g>
  </g>
  <defs>
    <clipPath id="clip-path">
      <rect id="Rectangle_8883" data-name="Rectangle 8883" width="29" height="29" transform="translate(1314 1167)" fill="#fff" opacity="0.2"/>
    </clipPath>
  </defs>
</svg>
