<svg xmlns="http://www.w3.org/2000/svg" xmlns:xlink="http://www.w3.org/1999/xlink" width="35.1" height="35.1" viewBox="0 0 35.1 35.1">

  <g id="Mask_Group_450" data-name="Mask Group 450" transform="translate(-2902.511 -942.416)" clip-path="url(#clip-path)">
    <g id="noun-support-tickets-4942326" transform="translate(2903.23 917.621)">
      <path id="Path_38641" data-name="Path 38641" d="M32.733,36.869a1.432,1.432,0,0,0-.074-.209,1.273,1.273,0,0,0-.112-.259c-.008-.013-.008-.027-.017-.04a1.226,1.226,0,0,0-.157-.15,1.144,1.144,0,0,0-.141-.156L26.9,32.122a4.606,4.606,0,0,0-4.54-3.9H5.532A4.616,4.616,0,0,0,.921,32.83V51.86a4.615,4.615,0,0,0,4.611,4.61H22.359a4.617,4.617,0,0,0,4.611-4.612V41.777L32.2,38.165a1.291,1.291,0,0,0,.2-.21c.031-.034.077-.049.1-.087.009-.013.01-.027.019-.04a1.345,1.345,0,0,0,.118-.252,1.217,1.217,0,0,0,.082-.213,4.247,4.247,0,0,0,.006-.494ZM24.375,51.858a2.02,2.02,0,0,1-2.017,2.018H5.532a2.02,2.02,0,0,1-2.017-2.018V32.827a2.02,2.02,0,0,1,2.017-2.016H22.359a2.019,2.019,0,0,1,2.017,2.016c0,.032.017.061.018.092a1.2,1.2,0,0,0,.053.262,1.318,1.318,0,0,0,.08.224,1.172,1.172,0,0,0,.134.2,1.131,1.131,0,0,0,.18.2c.025.022.036.051.062.07l4.327,3.19-4.295,2.966c-.032.023-.051.057-.08.082a1.4,1.4,0,0,0-.183.189,1.307,1.307,0,0,0-.135.2,1.176,1.176,0,0,0-.088.227,1.248,1.248,0,0,0-.052.258,1,1,0,0,0-.023.112V51.858Z" transform="translate(0)" fill="#6edc43"/>
      <path id="Path_38642" data-name="Path 38642" d="M17.872,33.03H7.11a1.3,1.3,0,0,0,0,2.594H17.871a1.3,1.3,0,0,0,0-2.594Z" transform="translate(1.453 1.429)" fill="#6edc43"/>
      <path id="Path_38643" data-name="Path 38643" d="M15.391,38.108H7.11a1.3,1.3,0,0,0,0,2.594h8.279a1.3,1.3,0,0,0,0-2.594Z" transform="translate(1.453 2.937)" fill="#6edc43"/>
      <path id="Path_38644" data-name="Path 38644" d="M12.768,43.189H7.11a1.3,1.3,0,0,0,0,2.594h5.657a1.3,1.3,0,0,0,0-2.594Z" transform="translate(1.453 4.447)" fill="#6edc43"/>
    </g>
  </g>
  <defs>
    <clipPath id="clip-path">
      <rect id="Rectangle_8876" data-name="Rectangle 8876" width="35.1" height="35.1" transform="translate(2902.511 942.416)" fill="#943030" opacity="0.28"/>
    </clipPath>
  </defs>
</svg>
