<svg xmlns="http://www.w3.org/2000/svg" width="34" height="34" viewBox="0 0 34 34">
  <g id="noun-luggage-3716487" transform="translate(-5 -5)">
    <path id="Path_37973" data-name="Path 37973" d="M36.733,23.889H32.2V22.378a2.273,2.273,0,0,0-2.267-2.267H26.911a2.273,2.273,0,0,0-2.267,2.267v1.511H23.133v-6.8a2.273,2.273,0,0,0-2.267-2.267H18.222V7.267A2.273,2.273,0,0,0,15.956,5H12.178A2.273,2.273,0,0,0,9.911,7.267v7.556H7.267A2.273,2.273,0,0,0,5,17.089V36.733A2.273,2.273,0,0,0,7.267,39H36.733A2.273,2.273,0,0,0,39,36.733V26.156A2.273,2.273,0,0,0,36.733,23.889ZM11.422,7.267a.758.758,0,0,1,.756-.756h3.778a.758.758,0,0,1,.756.756v7.556H11.422ZM7.267,37.489a.758.758,0,0,1-.756-.756V35.222H17.844v1.511a2.436,2.436,0,0,0,.113.756ZM17.844,26.156v7.556H6.511v-13.6H8.022a.756.756,0,1,0,0-1.511H6.511V17.089a.758.758,0,0,1,.756-.756h13.6a.758.758,0,0,1,.756.756V18.6H11.8a.756.756,0,1,0,0,1.511h9.822v3.778H20.111A2.273,2.273,0,0,0,17.844,26.156Zm5.289,11.333H20.111a.758.758,0,0,1-.756-.756V26.156a.758.758,0,0,1,.756-.756h3.022Zm3.022-15.111a.758.758,0,0,1,.756-.756h3.022a.758.758,0,0,1,.756.756v1.511H26.156ZM32.2,37.489H24.644V25.4H32.2Zm5.289-.756a.758.758,0,0,1-.756.756H33.711V25.4h3.022a.758.758,0,0,1,.756.756Z" fill="#6edc43"/>
  </g>
</svg>
